<svg width="743" height="829" viewBox="0 0 743 829" fill="none" xmlns="http://www.w3.org/2000/svg">
<rect x="88" y="50.6995" width="148.927" height="148.927" rx="10" stroke="white" stroke-width="12"/>
<rect x="88" y="239.837" width="148.927" height="148.927" rx="10" stroke="white" stroke-width="12"/>
<rect x="88" y="428.974" width="148.927" height="148.927" rx="10" stroke="white" stroke-width="12"/>
<rect x="297.987" y="239.837" width="148.927" height="148.927" rx="10" stroke="white" stroke-width="12"/>
<rect x="297.987" y="428.974" width="148.927" height="148.927" rx="10" stroke="white" stroke-width="12"/>
<rect x="509.464" y="239.837" width="148.927" height="148.927" rx="10" stroke="white" stroke-width="12"/>
<rect x="509.464" y="428.974" width="148.927" height="148.927" rx="10" stroke="white" stroke-width="12"/>
<rect x="297.987" y="50.6995" width="148.927" height="148.927" rx="10" stroke="white" stroke-width="12"/>
<rect x="678.553" y="103.777" width="134.58" height="134.034" rx="10" transform="rotate(135 678.553 103.777)" stroke="white" stroke-width="12"/>
<path d="M47.685 761.32C39.655 761.32 32.505 759.945 26.235 757.195C19.965 754.445 15.015 750.705 11.385 745.975C7.755 741.135 5.72 735.745 5.28 729.805H33.165C33.495 732.995 34.98 735.58 37.62 737.56C40.26 739.54 43.505 740.53 47.355 740.53C50.875 740.53 53.57 739.87 55.44 738.55C57.42 737.12 58.41 735.305 58.41 733.105C58.41 730.465 57.035 728.54 54.285 727.33C51.535 726.01 47.08 724.58 40.92 723.04C34.32 721.5 28.82 719.905 24.42 718.255C20.02 716.495 16.225 713.8 13.035 710.17C9.845 706.43 8.25 701.425 8.25 695.155C8.25 689.875 9.68 685.09 12.54 680.8C15.51 676.4 19.8 672.935 25.41 670.405C31.13 667.875 37.895 666.61 45.705 666.61C57.255 666.61 66.33 669.47 72.93 675.19C79.64 680.91 83.49 688.5 84.48 697.96H58.41C57.97 694.77 56.54 692.24 54.12 690.37C51.81 688.5 48.73 687.565 44.88 687.565C41.58 687.565 39.05 688.225 37.29 689.545C35.53 690.755 34.65 692.46 34.65 694.66C34.65 697.3 36.025 699.28 38.775 700.6C41.635 701.92 46.035 703.24 51.975 704.56C58.795 706.32 64.35 708.08 68.64 709.84C72.93 711.49 76.67 714.24 79.86 718.09C83.16 721.83 84.865 726.89 84.975 733.27C84.975 738.66 83.435 743.5 80.355 747.79C77.385 751.97 73.04 755.27 67.32 757.69C61.71 760.11 55.165 761.32 47.685 761.32ZM116.427 658.36C111.477 658.36 107.407 656.93 104.217 654.07C101.137 651.1 99.5968 647.47 99.5968 643.18C99.5968 638.78 101.137 635.15 104.217 632.29C107.407 629.32 111.477 627.835 116.427 627.835C121.267 627.835 125.227 629.32 128.307 632.29C131.497 635.15 133.092 638.78 133.092 643.18C133.092 647.47 131.497 651.1 128.307 654.07C125.227 656.93 121.267 658.36 116.427 658.36ZM130.452 667.93V760H102.237V667.93H130.452ZM165.089 658.36C160.139 658.36 156.069 656.93 152.879 654.07C149.799 651.1 148.259 647.47 148.259 643.18C148.259 638.78 149.799 635.15 152.879 632.29C156.069 629.32 160.139 627.835 165.089 627.835C169.929 627.835 173.889 629.32 176.969 632.29C180.159 635.15 181.754 638.78 181.754 643.18C181.754 647.47 180.159 651.1 176.969 654.07C173.889 656.93 169.929 658.36 165.089 658.36ZM179.114 667.93V760H150.899V667.93H179.114ZM237.016 761.32C228.986 761.32 221.836 759.945 215.566 757.195C209.296 754.445 204.346 750.705 200.716 745.975C197.086 741.135 195.051 735.745 194.611 729.805H222.496C222.826 732.995 224.311 735.58 226.951 737.56C229.591 739.54 232.836 740.53 236.686 740.53C240.206 740.53 242.901 739.87 244.771 738.55C246.751 737.12 247.741 735.305 247.741 733.105C247.741 730.465 246.366 728.54 243.616 727.33C240.866 726.01 236.411 724.58 230.251 723.04C223.651 721.5 218.151 719.905 213.751 718.255C209.351 716.495 205.556 713.8 202.366 710.17C199.176 706.43 197.581 701.425 197.581 695.155C197.581 689.875 199.011 685.09 201.871 680.8C204.841 676.4 209.131 672.935 214.741 670.405C220.461 667.875 227.226 666.61 235.036 666.61C246.586 666.61 255.661 669.47 262.261 675.19C268.971 680.91 272.821 688.5 273.811 697.96H247.741C247.301 694.77 245.871 692.24 243.451 690.37C241.141 688.5 238.061 687.565 234.211 687.565C230.911 687.565 228.381 688.225 226.621 689.545C224.861 690.755 223.981 692.46 223.981 694.66C223.981 697.3 225.356 699.28 228.106 700.6C230.966 701.92 235.366 703.24 241.306 704.56C248.126 706.32 253.681 708.08 257.971 709.84C262.261 711.49 266.001 714.24 269.191 718.09C272.491 721.83 274.196 726.89 274.306 733.27C274.306 738.66 272.766 743.5 269.686 747.79C266.716 751.97 262.371 755.27 256.651 757.69C251.041 760.11 244.496 761.32 237.016 761.32ZM342.883 736.075V760H328.528C318.298 760 310.323 757.525 304.603 752.575C298.883 747.515 296.023 739.32 296.023 727.99V691.36H284.803V667.93H296.023V645.49H324.238V667.93H342.718V691.36H324.238V728.32C324.238 731.07 324.898 733.05 326.218 734.26C327.538 735.47 329.738 736.075 332.818 736.075H342.883ZM372.789 658.36C367.839 658.36 363.769 656.93 360.579 654.07C357.499 651.1 355.959 647.47 355.959 643.18C355.959 638.78 357.499 635.15 360.579 632.29C363.769 629.32 367.839 627.835 372.789 627.835C377.629 627.835 381.589 629.32 384.669 632.29C387.859 635.15 389.454 638.78 389.454 643.18C389.454 647.47 387.859 651.1 384.669 654.07C381.589 656.93 377.629 658.36 372.789 658.36ZM386.814 667.93V760H358.599V667.93H386.814ZM444.716 761.32C436.686 761.32 429.536 759.945 423.266 757.195C416.996 754.445 412.046 750.705 408.416 745.975C404.786 741.135 402.751 735.745 402.311 729.805H430.196C430.526 732.995 432.011 735.58 434.651 737.56C437.291 739.54 440.536 740.53 444.386 740.53C447.906 740.53 450.601 739.87 452.471 738.55C454.451 737.12 455.441 735.305 455.441 733.105C455.441 730.465 454.066 728.54 451.316 727.33C448.566 726.01 444.111 724.58 437.951 723.04C431.351 721.5 425.851 719.905 421.451 718.255C417.051 716.495 413.256 713.8 410.066 710.17C406.876 706.43 405.281 701.425 405.281 695.155C405.281 689.875 406.711 685.09 409.571 680.8C412.541 676.4 416.831 672.935 422.441 670.405C428.161 667.875 434.926 666.61 442.736 666.61C454.286 666.61 463.361 669.47 469.961 675.19C476.671 680.91 480.521 688.5 481.511 697.96H455.441C455.001 694.77 453.571 692.24 451.151 690.37C448.841 688.5 445.761 687.565 441.911 687.565C438.611 687.565 436.081 688.225 434.321 689.545C432.561 690.755 431.681 692.46 431.681 694.66C431.681 697.3 433.056 699.28 435.806 700.6C438.666 701.92 443.066 703.24 449.006 704.56C455.826 706.32 461.381 708.08 465.671 709.84C469.961 711.49 473.701 714.24 476.891 718.09C480.191 721.83 481.896 726.89 482.006 733.27C482.006 738.66 480.466 743.5 477.386 747.79C474.416 751.97 470.071 755.27 464.351 757.69C458.741 760.11 452.196 761.32 444.716 761.32ZM547.434 761.32C542.484 761.32 538.414 759.89 535.224 757.03C532.144 754.06 530.604 750.43 530.604 746.14C530.604 741.74 532.144 738.055 535.224 735.085C538.414 732.115 542.484 730.63 547.434 730.63C552.274 730.63 556.234 732.115 559.314 735.085C562.504 738.055 564.099 741.74 564.099 746.14C564.099 750.43 562.504 754.06 559.314 757.03C556.234 759.89 552.274 761.32 547.434 761.32ZM575.191 713.8C575.191 704.34 576.951 696.035 580.471 688.885C584.101 681.735 588.996 676.235 595.156 672.385C601.316 668.535 608.191 666.61 615.781 666.61C622.271 666.61 627.936 667.93 632.776 670.57C637.726 673.21 641.521 676.675 644.161 680.965V667.93H672.376V760H644.161V746.965C641.411 751.255 637.561 754.72 632.611 757.36C627.771 760 622.106 761.32 615.616 761.32C608.136 761.32 601.316 759.395 595.156 755.545C588.996 751.585 584.101 746.03 580.471 738.88C576.951 731.62 575.191 723.26 575.191 713.8ZM644.161 713.965C644.161 706.925 642.181 701.37 638.221 697.3C634.371 693.23 629.641 691.195 624.031 691.195C618.421 691.195 613.636 693.23 609.676 697.3C605.826 701.26 603.901 706.76 603.901 713.8C603.901 720.84 605.826 726.45 609.676 730.63C613.636 734.7 618.421 736.735 624.031 736.735C629.641 736.735 634.371 734.7 638.221 730.63C642.181 726.56 644.161 721.005 644.161 713.965ZM706.979 658.36C702.029 658.36 697.959 656.93 694.769 654.07C691.689 651.1 690.149 647.47 690.149 643.18C690.149 638.78 691.689 635.15 694.769 632.29C697.959 629.32 702.029 627.835 706.979 627.835C711.819 627.835 715.779 629.32 718.859 632.29C722.049 635.15 723.644 638.78 723.644 643.18C723.644 647.47 722.049 651.1 718.859 654.07C715.779 656.93 711.819 658.36 706.979 658.36ZM721.004 667.93V760H692.789V667.93H721.004Z" fill="white"/>
</svg>
