<svg width="956" height="264" viewBox="0 0 956 264" fill="none" xmlns="http://www.w3.org/2000/svg">
<rect x="5" y="26.3979" width="65.7068" height="65.7068" rx="10" stroke="#F9AD32" stroke-width="10"/>
<rect x="5" y="109.846" width="65.7068" height="65.7068" rx="10" stroke="#F9AD32" stroke-width="10"/>
<rect x="5" y="193.293" width="65.7068" height="65.7068" rx="10" stroke="#F9AD32" stroke-width="10"/>
<rect x="97.6466" y="109.846" width="65.7068" height="65.7068" rx="10" stroke="#F9AD32" stroke-width="10"/>
<rect x="97.6466" y="193.293" width="65.7068" height="65.7068" rx="10" stroke="#F9AD32" stroke-width="10"/>
<rect x="190.95" y="109.846" width="65.7068" height="65.7068" rx="10" stroke="#F9AD32" stroke-width="10"/>
<rect x="190.95" y="193.293" width="65.7068" height="65.7068" rx="10" stroke="#F9AD32" stroke-width="10"/>
<rect x="97.6466" y="26.3979" width="65.7068" height="65.7068" rx="10" stroke="#F9AD32" stroke-width="10"/>
<rect x="265.553" y="49.8156" width="59.3769" height="59.1361" rx="10" transform="rotate(135 265.553 49.8156)" stroke="#F9AD32" stroke-width="10"/>
<path d="M338.14 193.155C329.67 193.155 322.08 191.78 315.37 189.03C308.66 186.28 303.27 182.21 299.2 176.82C295.24 171.43 293.15 164.94 292.93 157.35H322.96C323.4 161.64 324.885 164.94 327.415 167.25C329.945 169.45 333.245 170.55 337.315 170.55C341.495 170.55 344.795 169.615 347.215 167.745C349.635 165.765 350.845 163.07 350.845 159.66C350.845 156.8 349.855 154.435 347.875 152.565C346.005 150.695 343.64 149.155 340.78 147.945C338.03 146.735 334.07 145.36 328.9 143.82C321.42 141.51 315.315 139.2 310.585 136.89C305.855 134.58 301.785 131.17 298.375 126.66C294.965 122.15 293.26 116.265 293.26 109.005C293.26 98.225 297.165 89.81 304.975 83.76C312.785 77.6 322.96 74.52 335.5 74.52C348.26 74.52 358.545 77.6 366.355 83.76C374.165 89.81 378.345 98.28 378.895 109.17H348.37C348.15 105.43 346.775 102.515 344.245 100.425C341.715 98.225 338.47 97.125 334.51 97.125C331.1 97.125 328.35 98.06 326.26 99.93C324.17 101.69 323.125 104.275 323.125 107.685C323.125 111.425 324.885 114.34 328.405 116.43C331.925 118.52 337.425 120.775 344.905 123.195C352.385 125.725 358.435 128.145 363.055 130.455C367.785 132.765 371.855 136.12 375.265 140.52C378.675 144.92 380.38 150.585 380.38 157.515C380.38 164.115 378.675 170.11 375.265 175.5C371.965 180.89 367.125 185.18 360.745 188.37C354.365 191.56 346.83 193.155 338.14 193.155ZM411.934 90.36C406.984 90.36 402.914 88.93 399.724 86.07C396.644 83.1 395.104 79.47 395.104 75.18C395.104 70.78 396.644 67.15 399.724 64.29C402.914 61.32 406.984 59.835 411.934 59.835C416.774 59.835 420.734 61.32 423.814 64.29C427.004 67.15 428.599 70.78 428.599 75.18C428.599 79.47 427.004 83.1 423.814 86.07C420.734 88.93 416.774 90.36 411.934 90.36ZM425.959 99.93V192H397.744V99.93H425.959ZM460.596 90.36C455.646 90.36 451.576 88.93 448.386 86.07C445.306 83.1 443.766 79.47 443.766 75.18C443.766 70.78 445.306 67.15 448.386 64.29C451.576 61.32 455.646 59.835 460.596 59.835C465.436 59.835 469.396 61.32 472.476 64.29C475.666 67.15 477.261 70.78 477.261 75.18C477.261 79.47 475.666 83.1 472.476 86.07C469.396 88.93 465.436 90.36 460.596 90.36ZM474.621 99.93V192H446.406V99.93H474.621ZM546.383 168.075V192H532.028C521.798 192 513.823 189.525 508.103 184.575C502.383 179.515 499.523 171.32 499.523 159.99V123.36H488.303V99.93H499.523V77.49H527.738V99.93H546.218V123.36H527.738V160.32C527.738 163.07 528.398 165.05 529.718 166.26C531.038 167.47 533.238 168.075 536.318 168.075H546.383ZM576.289 90.36C571.339 90.36 567.269 88.93 564.079 86.07C560.999 83.1 559.459 79.47 559.459 75.18C559.459 70.78 560.999 67.15 564.079 64.29C567.269 61.32 571.339 59.835 576.289 59.835C581.129 59.835 585.089 61.32 588.169 64.29C591.359 67.15 592.954 70.78 592.954 75.18C592.954 79.47 591.359 83.1 588.169 86.07C585.089 88.93 581.129 90.36 576.289 90.36ZM590.314 99.93V192H562.099V99.93H590.314ZM648.216 193.32C640.186 193.32 633.036 191.945 626.766 189.195C620.496 186.445 615.546 182.705 611.916 177.975C608.286 173.135 606.251 167.745 605.811 161.805H633.696C634.026 164.995 635.511 167.58 638.151 169.56C640.791 171.54 644.036 172.53 647.886 172.53C651.406 172.53 654.101 171.87 655.971 170.55C657.951 169.12 658.941 167.305 658.941 165.105C658.941 162.465 657.566 160.54 654.816 159.33C652.066 158.01 647.611 156.58 641.451 155.04C634.851 153.5 629.351 151.905 624.951 150.255C620.551 148.495 616.756 145.8 613.566 142.17C610.376 138.43 608.781 133.425 608.781 127.155C608.781 121.875 610.211 117.09 613.071 112.8C616.041 108.4 620.331 104.935 625.941 102.405C631.661 99.875 638.426 98.61 646.236 98.61C657.786 98.61 666.861 101.47 673.461 107.19C680.171 112.91 684.021 120.5 685.011 129.96H658.941C658.501 126.77 657.071 124.24 654.651 122.37C652.341 120.5 649.261 119.565 645.411 119.565C642.111 119.565 639.581 120.225 637.821 121.545C636.061 122.755 635.181 124.46 635.181 126.66C635.181 129.3 636.556 131.28 639.306 132.6C642.166 133.92 646.566 135.24 652.506 136.56C659.326 138.32 664.881 140.08 669.171 141.84C673.461 143.49 677.201 146.24 680.391 150.09C683.691 153.83 685.396 158.89 685.506 165.27C685.506 170.66 683.966 175.5 680.886 179.79C677.916 183.97 673.571 187.27 667.851 189.69C662.241 192.11 655.696 193.32 648.216 193.32ZM750.934 193.32C745.984 193.32 741.914 191.89 738.724 189.03C735.644 186.06 734.104 182.43 734.104 178.14C734.104 173.74 735.644 170.055 738.724 167.085C741.914 164.115 745.984 162.63 750.934 162.63C755.774 162.63 759.734 164.115 762.814 167.085C766.004 170.055 767.599 173.74 767.599 178.14C767.599 182.43 766.004 186.06 762.814 189.03C759.734 191.89 755.774 193.32 750.934 193.32ZM778.691 145.8C778.691 136.34 780.451 128.035 783.971 120.885C787.601 113.735 792.496 108.235 798.656 104.385C804.816 100.535 811.691 98.61 819.281 98.61C825.771 98.61 831.436 99.93 836.276 102.57C841.226 105.21 845.021 108.675 847.661 112.965V99.93H875.876V192H847.661V178.965C844.911 183.255 841.061 186.72 836.111 189.36C831.271 192 825.606 193.32 819.116 193.32C811.636 193.32 804.816 191.395 798.656 187.545C792.496 183.585 787.601 178.03 783.971 170.88C780.451 163.62 778.691 155.26 778.691 145.8ZM847.661 145.965C847.661 138.925 845.681 133.37 841.721 129.3C837.871 125.23 833.141 123.195 827.531 123.195C821.921 123.195 817.136 125.23 813.176 129.3C809.326 133.26 807.401 138.76 807.401 145.8C807.401 152.84 809.326 158.45 813.176 162.63C817.136 166.7 821.921 168.735 827.531 168.735C833.141 168.735 837.871 166.7 841.721 162.63C845.681 158.56 847.661 153.005 847.661 145.965ZM910.479 90.36C905.529 90.36 901.459 88.93 898.269 86.07C895.189 83.1 893.649 79.47 893.649 75.18C893.649 70.78 895.189 67.15 898.269 64.29C901.459 61.32 905.529 59.835 910.479 59.835C915.319 59.835 919.279 61.32 922.359 64.29C925.549 67.15 927.144 70.78 927.144 75.18C927.144 79.47 925.549 83.1 922.359 86.07C919.279 88.93 915.319 90.36 910.479 90.36ZM924.504 99.93V192H896.289V99.93H924.504Z" fill="#F9AD32"/>
</svg>
