<svg width="614" height="760" viewBox="0 0 614 760" fill="none" xmlns="http://www.w3.org/2000/svg">
<rect x="6.73358" y="51.2126" width="150.759" height="150.759" rx="10" stroke="black" stroke-width="12"/>
<rect x="6.73358" y="242.677" width="150.759" height="150.759" rx="10" stroke="black" stroke-width="12"/>
<rect x="6.73358" y="434.142" width="150.759" height="150.759" rx="10" stroke="black" stroke-width="12"/>
<rect x="219.304" y="242.677" width="150.759" height="150.759" rx="10" stroke="black" stroke-width="12"/>
<rect x="219.304" y="434.142" width="150.759" height="150.759" rx="10" stroke="black" stroke-width="12"/>
<rect x="433.383" y="242.677" width="150.759" height="150.759" rx="10" stroke="black" stroke-width="12"/>
<rect x="433.383" y="434.142" width="150.759" height="150.759" rx="10" stroke="black" stroke-width="12"/>
<rect x="219.304" y="51.2126" width="150.759" height="150.759" rx="10" stroke="black" stroke-width="12"/>
<rect x="604.553" y="104.943" width="136.236" height="135.684" rx="10" transform="rotate(135 604.553 104.943)" stroke="black" stroke-width="12"/>
<path d="M58.24 758.98C51.0533 758.98 44.6133 757.813 38.92 755.48C33.2266 753.147 28.6533 749.693 25.2 745.12C21.84 740.547 20.0666 735.04 19.88 728.6H45.36C45.7333 732.24 46.9933 735.04 49.14 737C51.2866 738.867 54.0866 739.8 57.54 739.8C61.0866 739.8 63.8866 739.007 65.94 737.42C67.9933 735.74 69.02 733.453 69.02 730.56C69.02 728.133 68.18 726.127 66.5 724.54C64.9133 722.953 62.9066 721.647 60.48 720.62C58.1466 719.593 54.7866 718.427 50.4 717.12C44.0533 715.16 38.8733 713.2 34.86 711.24C30.8466 709.28 27.3933 706.387 24.5 702.56C21.6066 698.733 20.16 693.74 20.16 687.58C20.16 678.433 23.4733 671.293 30.1 666.16C36.7266 660.933 45.36 658.32 56 658.32C66.8266 658.32 75.5533 660.933 82.18 666.16C88.8066 671.293 92.3533 678.48 92.82 687.72H66.92C66.7333 684.547 65.5666 682.073 63.42 680.3C61.2733 678.433 58.52 677.5 55.16 677.5C52.2666 677.5 49.9333 678.293 48.16 679.88C46.3866 681.373 45.5 683.567 45.5 686.46C45.5 689.633 46.9933 692.107 49.98 693.88C52.9666 695.653 57.6333 697.567 63.98 699.62C70.3266 701.767 75.46 703.82 79.38 705.78C83.3933 707.74 86.8466 710.587 89.74 714.32C92.6333 718.053 94.08 722.86 94.08 728.74C94.08 734.34 92.6333 739.427 89.74 744C86.94 748.573 82.8333 752.213 77.42 754.92C72.0066 757.627 65.6133 758.98 58.24 758.98ZM120.853 671.76C116.653 671.76 113.199 670.547 110.493 668.12C107.879 665.6 106.573 662.52 106.573 658.88C106.573 655.147 107.879 652.067 110.493 649.64C113.199 647.12 116.653 645.86 120.853 645.86C124.959 645.86 128.319 647.12 130.933 649.64C133.639 652.067 134.993 655.147 134.993 658.88C134.993 662.52 133.639 665.6 130.933 668.12C128.319 670.547 124.959 671.76 120.853 671.76ZM132.753 679.88V758H108.813V679.88H132.753ZM162.142 671.76C157.942 671.76 154.489 670.547 151.782 668.12C149.169 665.6 147.862 662.52 147.862 658.88C147.862 655.147 149.169 652.067 151.782 649.64C154.489 647.12 157.942 645.86 162.142 645.86C166.249 645.86 169.609 647.12 172.222 649.64C174.929 652.067 176.282 655.147 176.282 658.88C176.282 662.52 174.929 665.6 172.222 668.12C169.609 670.547 166.249 671.76 162.142 671.76ZM174.042 679.88V758H150.102V679.88H174.042ZM223.171 759.12C216.358 759.12 210.291 757.953 204.971 755.62C199.651 753.287 195.451 750.113 192.371 746.1C189.291 741.993 187.564 737.42 187.191 732.38H210.851C211.131 735.087 212.391 737.28 214.631 738.96C216.871 740.64 219.624 741.48 222.891 741.48C225.878 741.48 228.164 740.92 229.751 739.8C231.431 738.587 232.271 737.047 232.271 735.18C232.271 732.94 231.104 731.307 228.771 730.28C226.438 729.16 222.658 727.947 217.431 726.64C211.831 725.333 207.164 723.98 203.431 722.58C199.698 721.087 196.478 718.8 193.771 715.72C191.064 712.547 189.711 708.3 189.711 702.98C189.711 698.5 190.924 694.44 193.351 690.8C195.871 687.067 199.511 684.127 204.271 681.98C209.124 679.833 214.864 678.76 221.491 678.76C231.291 678.76 238.991 681.187 244.591 686.04C250.284 690.893 253.551 697.333 254.391 705.36H232.271C231.898 702.653 230.684 700.507 228.631 698.92C226.671 697.333 224.058 696.54 220.791 696.54C217.991 696.54 215.844 697.1 214.351 698.22C212.858 699.247 212.111 700.693 212.111 702.56C212.111 704.8 213.278 706.48 215.611 707.6C218.038 708.72 221.771 709.84 226.811 710.96C232.598 712.453 237.311 713.947 240.951 715.44C244.591 716.84 247.764 719.173 250.471 722.44C253.271 725.613 254.718 729.907 254.811 735.32C254.811 739.893 253.504 744 250.891 747.64C248.371 751.187 244.684 753.987 239.831 756.04C235.071 758.093 229.518 759.12 223.171 759.12ZM312.997 737.7V758H300.817C292.137 758 285.371 755.9 280.517 751.7C275.664 747.407 273.237 740.453 273.237 730.84V699.76H263.717V679.88H273.237V660.84H297.177V679.88H312.857V699.76H297.177V731.12C297.177 733.453 297.737 735.133 298.857 736.16C299.977 737.187 301.844 737.7 304.457 737.7H312.997ZM338.372 671.76C334.172 671.76 330.719 670.547 328.012 668.12C325.399 665.6 324.092 662.52 324.092 658.88C324.092 655.147 325.399 652.067 328.012 649.64C330.719 647.12 334.172 645.86 338.372 645.86C342.479 645.86 345.839 647.12 348.452 649.64C351.159 652.067 352.512 655.147 352.512 658.88C352.512 662.52 351.159 665.6 348.452 668.12C345.839 670.547 342.479 671.76 338.372 671.76ZM350.272 679.88V758H326.332V679.88H350.272ZM408.489 759.12C404.289 759.12 400.836 757.907 398.129 755.48C395.516 752.96 394.209 749.88 394.209 746.24C394.209 742.507 395.516 739.38 398.129 736.86C400.836 734.34 404.289 733.08 408.489 733.08C412.596 733.08 415.956 734.34 418.569 736.86C421.276 739.38 422.629 742.507 422.629 746.24C422.629 749.88 421.276 752.96 418.569 755.48C415.956 757.907 412.596 759.12 408.489 759.12ZM432.041 718.8C432.041 710.773 433.534 703.727 436.521 697.66C439.601 691.593 443.754 686.927 448.981 683.66C454.208 680.393 460.041 678.76 466.481 678.76C471.988 678.76 476.794 679.88 480.901 682.12C485.101 684.36 488.321 687.3 490.561 690.94V679.88H514.501V758H490.561V746.94C488.228 750.58 484.961 753.52 480.761 755.76C476.654 758 471.848 759.12 466.341 759.12C459.994 759.12 454.208 757.487 448.981 754.22C443.754 750.86 439.601 746.147 436.521 740.08C433.534 733.92 432.041 726.827 432.041 718.8ZM490.561 718.94C490.561 712.967 488.881 708.253 485.521 704.8C482.254 701.347 478.241 699.62 473.481 699.62C468.721 699.62 464.661 701.347 461.301 704.8C458.034 708.16 456.401 712.827 456.401 718.8C456.401 724.773 458.034 729.533 461.301 733.08C464.661 736.533 468.721 738.26 473.481 738.26C478.241 738.26 482.254 736.533 485.521 733.08C488.881 729.627 490.561 724.913 490.561 718.94ZM543.861 671.76C539.661 671.76 536.207 670.547 533.501 668.12C530.887 665.6 529.581 662.52 529.581 658.88C529.581 655.147 530.887 652.067 533.501 649.64C536.207 647.12 539.661 645.86 543.861 645.86C547.967 645.86 551.327 647.12 553.941 649.64C556.647 652.067 558.001 655.147 558.001 658.88C558.001 662.52 556.647 665.6 553.941 668.12C551.327 670.547 547.967 671.76 543.861 671.76ZM555.761 679.88V758H531.821V679.88H555.761Z" fill="black"/>
</svg>
