<svg width="1032" height="264" viewBox="0 0 1032 264" fill="none" xmlns="http://www.w3.org/2000/svg">
<rect x="5" y="26.3979" width="65.7068" height="65.7068" rx="10" stroke="white" stroke-width="10"/>
<rect x="5" y="109.846" width="65.7068" height="65.7068" rx="10" stroke="white" stroke-width="10"/>
<rect x="5" y="193.293" width="65.7068" height="65.7068" rx="10" stroke="white" stroke-width="10"/>
<rect x="97.6466" y="109.846" width="65.7068" height="65.7068" rx="10" stroke="white" stroke-width="10"/>
<rect x="97.6466" y="193.293" width="65.7068" height="65.7068" rx="10" stroke="white" stroke-width="10"/>
<rect x="190.95" y="109.846" width="65.7068" height="65.7068" rx="10" stroke="white" stroke-width="10"/>
<rect x="190.95" y="193.293" width="65.7068" height="65.7068" rx="10" stroke="white" stroke-width="10"/>
<rect x="97.6466" y="26.3979" width="65.7068" height="65.7068" rx="10" stroke="white" stroke-width="10"/>
<rect x="265.553" y="49.8156" width="59.3769" height="59.1361" rx="10" transform="rotate(135 265.553 49.8156)" stroke="white" stroke-width="10"/>
<path d="M336.685 192.32C328.655 192.32 321.505 190.945 315.235 188.195C308.965 185.445 304.015 181.705 300.385 176.975C296.755 172.135 294.72 166.745 294.28 160.805H322.165C322.495 163.995 323.98 166.58 326.62 168.56C329.26 170.54 332.505 171.53 336.355 171.53C339.875 171.53 342.57 170.87 344.44 169.55C346.42 168.12 347.41 166.305 347.41 164.105C347.41 161.465 346.035 159.54 343.285 158.33C340.535 157.01 336.08 155.58 329.92 154.04C323.32 152.5 317.82 150.905 313.42 149.255C309.02 147.495 305.225 144.8 302.035 141.17C298.845 137.43 297.25 132.425 297.25 126.155C297.25 120.875 298.68 116.09 301.54 111.8C304.51 107.4 308.8 103.935 314.41 101.405C320.13 98.875 326.895 97.61 334.705 97.61C346.255 97.61 355.33 100.47 361.93 106.19C368.64 111.91 372.49 119.5 373.48 128.96H347.41C346.97 125.77 345.54 123.24 343.12 121.37C340.81 119.5 337.73 118.565 333.88 118.565C330.58 118.565 328.05 119.225 326.29 120.545C324.53 121.755 323.65 123.46 323.65 125.66C323.65 128.3 325.025 130.28 327.775 131.6C330.635 132.92 335.035 134.24 340.975 135.56C347.795 137.32 353.35 139.08 357.64 140.84C361.93 142.49 365.67 145.24 368.86 149.09C372.16 152.83 373.865 157.89 373.975 164.27C373.975 169.66 372.435 174.5 369.355 178.79C366.385 182.97 362.04 186.27 356.32 188.69C350.71 191.11 344.165 192.32 336.685 192.32ZM405.427 89.36C400.477 89.36 396.407 87.93 393.217 85.07C390.137 82.1 388.597 78.47 388.597 74.18C388.597 69.78 390.137 66.15 393.217 63.29C396.407 60.32 400.477 58.835 405.427 58.835C410.267 58.835 414.227 60.32 417.307 63.29C420.497 66.15 422.092 69.78 422.092 74.18C422.092 78.47 420.497 82.1 417.307 85.07C414.227 87.93 410.267 89.36 405.427 89.36ZM419.452 98.93V191H391.237V98.93H419.452ZM454.089 89.36C449.139 89.36 445.069 87.93 441.879 85.07C438.799 82.1 437.259 78.47 437.259 74.18C437.259 69.78 438.799 66.15 441.879 63.29C445.069 60.32 449.139 58.835 454.089 58.835C458.929 58.835 462.889 60.32 465.969 63.29C469.159 66.15 470.754 69.78 470.754 74.18C470.754 78.47 469.159 82.1 465.969 85.07C462.889 87.93 458.929 89.36 454.089 89.36ZM468.114 98.93V191H439.899V98.93H468.114ZM526.016 192.32C517.986 192.32 510.836 190.945 504.566 188.195C498.296 185.445 493.346 181.705 489.716 176.975C486.086 172.135 484.051 166.745 483.611 160.805H511.496C511.826 163.995 513.311 166.58 515.951 168.56C518.591 170.54 521.836 171.53 525.686 171.53C529.206 171.53 531.901 170.87 533.771 169.55C535.751 168.12 536.741 166.305 536.741 164.105C536.741 161.465 535.366 159.54 532.616 158.33C529.866 157.01 525.411 155.58 519.251 154.04C512.651 152.5 507.151 150.905 502.751 149.255C498.351 147.495 494.556 144.8 491.366 141.17C488.176 137.43 486.581 132.425 486.581 126.155C486.581 120.875 488.011 116.09 490.871 111.8C493.841 107.4 498.131 103.935 503.741 101.405C509.461 98.875 516.226 97.61 524.036 97.61C535.586 97.61 544.661 100.47 551.261 106.19C557.971 111.91 561.821 119.5 562.811 128.96H536.741C536.301 125.77 534.871 123.24 532.451 121.37C530.141 119.5 527.061 118.565 523.211 118.565C519.911 118.565 517.381 119.225 515.621 120.545C513.861 121.755 512.981 123.46 512.981 125.66C512.981 128.3 514.356 130.28 517.106 131.6C519.966 132.92 524.366 134.24 530.306 135.56C537.126 137.32 542.681 139.08 546.971 140.84C551.261 142.49 555.001 145.24 558.191 149.09C561.491 152.83 563.196 157.89 563.306 164.27C563.306 169.66 561.766 174.5 558.686 178.79C555.716 182.97 551.371 186.27 545.651 188.69C540.041 191.11 533.496 192.32 526.016 192.32ZM631.883 167.075V191H617.528C607.298 191 599.323 188.525 593.603 183.575C587.883 178.515 585.023 170.32 585.023 158.99V122.36H573.803V98.93H585.023V76.49H613.238V98.93H631.718V122.36H613.238V159.32C613.238 162.07 613.898 164.05 615.218 165.26C616.538 166.47 618.738 167.075 621.818 167.075H631.883ZM661.789 89.36C656.839 89.36 652.769 87.93 649.579 85.07C646.499 82.1 644.959 78.47 644.959 74.18C644.959 69.78 646.499 66.15 649.579 63.29C652.769 60.32 656.839 58.835 661.789 58.835C666.629 58.835 670.589 60.32 673.669 63.29C676.859 66.15 678.454 69.78 678.454 74.18C678.454 78.47 676.859 82.1 673.669 85.07C670.589 87.93 666.629 89.36 661.789 89.36ZM675.814 98.93V191H647.599V98.93H675.814ZM733.716 192.32C725.686 192.32 718.536 190.945 712.266 188.195C705.996 185.445 701.046 181.705 697.416 176.975C693.786 172.135 691.751 166.745 691.311 160.805H719.196C719.526 163.995 721.011 166.58 723.651 168.56C726.291 170.54 729.536 171.53 733.386 171.53C736.906 171.53 739.601 170.87 741.471 169.55C743.451 168.12 744.441 166.305 744.441 164.105C744.441 161.465 743.066 159.54 740.316 158.33C737.566 157.01 733.111 155.58 726.951 154.04C720.351 152.5 714.851 150.905 710.451 149.255C706.051 147.495 702.256 144.8 699.066 141.17C695.876 137.43 694.281 132.425 694.281 126.155C694.281 120.875 695.711 116.09 698.571 111.8C701.541 107.4 705.831 103.935 711.441 101.405C717.161 98.875 723.926 97.61 731.736 97.61C743.286 97.61 752.361 100.47 758.961 106.19C765.671 111.91 769.521 119.5 770.511 128.96H744.441C744.001 125.77 742.571 123.24 740.151 121.37C737.841 119.5 734.761 118.565 730.911 118.565C727.611 118.565 725.081 119.225 723.321 120.545C721.561 121.755 720.681 123.46 720.681 125.66C720.681 128.3 722.056 130.28 724.806 131.6C727.666 132.92 732.066 134.24 738.006 135.56C744.826 137.32 750.381 139.08 754.671 140.84C758.961 142.49 762.701 145.24 765.891 149.09C769.191 152.83 770.896 157.89 771.006 164.27C771.006 169.66 769.466 174.5 766.386 178.79C763.416 182.97 759.071 186.27 753.351 188.69C747.741 191.11 741.196 192.32 733.716 192.32ZM836.434 192.32C831.484 192.32 827.414 190.89 824.224 188.03C821.144 185.06 819.604 181.43 819.604 177.14C819.604 172.74 821.144 169.055 824.224 166.085C827.414 163.115 831.484 161.63 836.434 161.63C841.274 161.63 845.234 163.115 848.314 166.085C851.504 169.055 853.099 172.74 853.099 177.14C853.099 181.43 851.504 185.06 848.314 188.03C845.234 190.89 841.274 192.32 836.434 192.32ZM864.191 144.8C864.191 135.34 865.951 127.035 869.471 119.885C873.101 112.735 877.996 107.235 884.156 103.385C890.316 99.535 897.191 97.61 904.781 97.61C911.271 97.61 916.936 98.93 921.776 101.57C926.726 104.21 930.521 107.675 933.161 111.965V98.93H961.376V191H933.161V177.965C930.411 182.255 926.561 185.72 921.611 188.36C916.771 191 911.106 192.32 904.616 192.32C897.136 192.32 890.316 190.395 884.156 186.545C877.996 182.585 873.101 177.03 869.471 169.88C865.951 162.62 864.191 154.26 864.191 144.8ZM933.161 144.965C933.161 137.925 931.181 132.37 927.221 128.3C923.371 124.23 918.641 122.195 913.031 122.195C907.421 122.195 902.636 124.23 898.676 128.3C894.826 132.26 892.901 137.76 892.901 144.8C892.901 151.84 894.826 157.45 898.676 161.63C902.636 165.7 907.421 167.735 913.031 167.735C918.641 167.735 923.371 165.7 927.221 161.63C931.181 157.56 933.161 152.005 933.161 144.965ZM995.979 89.36C991.029 89.36 986.959 87.93 983.769 85.07C980.689 82.1 979.149 78.47 979.149 74.18C979.149 69.78 980.689 66.15 983.769 63.29C986.959 60.32 991.029 58.835 995.979 58.835C1000.82 58.835 1004.78 60.32 1007.86 63.29C1011.05 66.15 1012.64 69.78 1012.64 74.18C1012.64 78.47 1011.05 82.1 1007.86 85.07C1004.78 87.93 1000.82 89.36 995.979 89.36ZM1010 98.93V191H981.789V98.93H1010Z" fill="white"/>
</svg>
